<?xml version="1.0" encoding="UTF-8"?>
<!DOCTYPE svg PUBLIC "-//W3C//DTD SVG 1.1//EN" "http://www.w3.org/Graphics/SVG/1.1/DTD/svg11.dtd">
<svg xmlns="http://www.w3.org/2000/svg" version="1.1" width="667px" height="667px" style="shape-rendering:geometricPrecision; text-rendering:geometricPrecision; image-rendering:optimizeQuality; fill-rule:evenodd; clip-rule:evenodd" xmlns:xlink="http://www.w3.org/1999/xlink">
<g><path style="opacity:0.983" fill="#c0c2c0" d="M 468.5,169.5 C 476.474,177.139 484.474,184.806 492.5,192.5C 495.463,196.798 498.797,200.798 502.5,204.5C 509.085,214.004 515.418,223.671 521.5,233.5C 521.66,235.153 522.326,236.486 523.5,237.5C 536.946,264.948 544.612,293.948 546.5,324.5C 547.833,331.5 547.833,338.5 546.5,345.5C 538.405,430.57 496.072,491.737 419.5,529C 347.452,558.024 278.785,551.69 213.5,510C 197.346,496.552 193.18,480.052 201,460.5C 240.117,370.931 279.784,281.598 320,192.5C 329.34,182.874 338.34,183.208 347,193.5C 382.729,274.955 417.896,356.621 452.5,438.5C 452.037,444.152 449.037,445.985 443.5,444C 413.498,410.674 377.164,387.007 334.5,373C 324.012,370.069 313.345,368.235 302.5,367.5C 300.167,366.833 297.833,366.167 295.5,365.5C 297.117,364.962 298.784,364.629 300.5,364.5C 332.814,364.833 362.481,373.999 389.5,392C 407.086,405.582 424.086,419.915 440.5,435C 442.92,435.915 444.253,435.082 444.5,432.5C 412.099,354.798 379.599,277.132 347,199.5C 344.407,192.788 339.574,188.788 332.5,187.5C 326.652,189.177 322.486,192.844 320,198.5C 281.391,288.718 243.058,379.051 205,469.5C 202.82,481.645 206.653,491.479 216.5,499C 276.366,538.172 340.032,545.506 407.5,521C 481.232,488.768 523.399,432.601 534,352.5C 538.432,266.519 504.265,201.019 431.5,156C 366.879,122.021 302.213,122.021 237.5,156C 185.871,187.004 152.371,231.838 137,290.5C 132.743,313.087 132.41,335.754 136,358.5C 136.495,356.527 136.662,354.527 136.5,352.5C 138.43,371.812 142.43,390.812 148.5,409.5C 138.956,390.007 133.123,369.341 131,347.5C 126.271,260.109 161.105,193.943 235.5,149C 302.809,113.678 370.143,113.678 437.5,149C 448.234,155.357 458.567,162.191 468.5,169.5 Z"/></g>
<g><path style="opacity:1" fill="#fbfcfb" d="M 300.5,364.5 C 333.388,361.221 364.055,368.055 392.5,385C 404.801,392.402 416.301,400.902 427,410.5C 396.838,346.271 366.338,281.937 335.5,217.5C 334.635,216.417 333.635,216.251 332.5,217C 296.866,302.231 261.033,387.398 225,472.5C 223.289,478.694 224.789,483.86 229.5,488C 284.549,522.294 342.549,527.961 403.5,505C 464.02,478.134 501.52,432.3 516,367.5C 522.393,333.1 519.726,299.433 508,266.5C 504.011,256.335 499.177,246.668 493.5,237.5C 460.017,181.891 410.684,150.724 345.5,144C 332.817,143.318 320.15,143.484 307.5,144.5C 225.283,158.216 170.783,204.549 144,283.5C 137.704,306.077 135.204,329.077 136.5,352.5C 136.662,354.527 136.495,356.527 136,358.5C 132.41,335.754 132.743,313.087 137,290.5C 152.371,231.838 185.871,187.004 237.5,156C 302.213,122.021 366.879,122.021 431.5,156C 504.265,201.019 538.432,266.519 534,352.5C 523.399,432.601 481.232,488.768 407.5,521C 340.032,545.506 276.366,538.172 216.5,499C 206.653,491.479 202.82,481.645 205,469.5C 243.058,379.051 281.391,288.718 320,198.5C 322.486,192.844 326.652,189.177 332.5,187.5C 339.574,188.788 344.407,192.788 347,199.5C 379.599,277.132 412.099,354.798 444.5,432.5C 444.253,435.082 442.92,435.915 440.5,435C 424.086,419.915 407.086,405.582 389.5,392C 362.481,373.999 332.814,364.833 300.5,364.5 Z"/></g>
<g><path style="opacity:1" fill="#070808" d="M 493.5,237.5 C 446.024,178.948 384.691,154.448 309.5,164C 239.681,178.146 190.181,217.646 161,282.5C 144.241,325.607 142.075,369.44 154.5,414C 154.167,414.5 153.833,415 153.5,415.5C 126.783,330.535 145.116,257.035 208.5,195C 237.48,170.177 270.48,153.344 307.5,144.5C 320.15,143.484 332.817,143.318 345.5,144C 410.684,150.724 460.017,181.891 493.5,237.5 Z"/></g>
<g><path style="opacity:0.997" fill="#0b0b0c" d="M 468.5,169.5 C 458.567,162.191 448.234,155.357 437.5,149C 370.143,113.678 302.809,113.678 235.5,149C 161.105,193.943 126.271,260.109 131,347.5C 133.123,369.341 138.956,390.007 148.5,409.5C 142.43,390.812 138.43,371.812 136.5,352.5C 135.204,329.077 137.704,306.077 144,283.5C 170.783,204.549 225.283,158.216 307.5,144.5C 270.48,153.344 237.48,170.177 208.5,195C 145.116,257.035 126.783,330.535 153.5,415.5C 153.833,415 154.167,414.5 154.5,414C 142.075,369.44 144.241,325.607 161,282.5C 190.181,217.646 239.681,178.146 309.5,164C 384.691,154.448 446.024,178.948 493.5,237.5C 499.177,246.668 504.011,256.335 508,266.5C 519.726,299.433 522.393,333.1 516,367.5C 501.52,432.3 464.02,478.134 403.5,505C 342.549,527.961 284.549,522.294 229.5,488C 224.789,483.86 223.289,478.694 225,472.5C 261.033,387.398 296.866,302.231 332.5,217C 333.635,216.251 334.635,216.417 335.5,217.5C 366.338,281.937 396.838,346.271 427,410.5C 416.301,400.902 404.801,392.402 392.5,385C 364.055,368.055 333.388,361.221 300.5,364.5C 298.784,364.629 297.117,364.962 295.5,365.5C 294.711,365.783 294.044,366.283 293.5,367C 296.482,367.498 299.482,367.665 302.5,367.5C 313.345,368.235 324.012,370.069 334.5,373C 377.164,387.007 413.498,410.674 443.5,444C 449.037,445.985 452.037,444.152 452.5,438.5C 417.896,356.621 382.729,274.955 347,193.5C 338.34,183.208 329.34,182.874 320,192.5C 279.784,281.598 240.117,370.931 201,460.5C 193.18,480.052 197.346,496.552 213.5,510C 278.785,551.69 347.452,558.024 419.5,529C 496.072,491.737 538.405,430.57 546.5,345.5C 546.528,364.466 543.694,383.132 538,401.5C 508.96,479.967 453.46,528.133 371.5,546C 311.433,555.928 256.767,543.261 207.5,508C 204.547,504.592 201.713,501.092 199,497.5C 195.03,484.182 192.697,470.515 192,456.5C 186.339,449.493 179.172,444.66 170.5,442C 159.867,433.95 151.701,423.783 146,411.5C 113.81,330.492 125.476,256.492 181,189.5C 216.382,151.557 259.882,129.057 311.5,122C 326.904,121.697 342.07,121.197 357,120.5C 377.667,124.14 397.834,129.64 417.5,137C 427.958,142.148 438.291,147.482 448.5,153C 454.655,157.911 460.989,162.577 467.5,167C 468.252,167.671 468.586,168.504 468.5,169.5 Z"/></g>
<g><path style="opacity:0.178" fill="#141414" d="M 468.5,169.5 C 477.792,175.792 485.792,183.458 492.5,192.5C 484.474,184.806 476.474,177.139 468.5,169.5 Z"/></g>
<g><path style="opacity:0.259" fill="#1b1b1b" d="M 492.5,192.5 C 496.957,195.619 500.291,199.619 502.5,204.5C 498.797,200.798 495.463,196.798 492.5,192.5 Z"/></g>
<g><path style="opacity:0.184" fill="#121213" d="M 502.5,204.5 C 507.179,209.018 511.346,214.018 515,219.5C 517.92,223.889 520.087,228.556 521.5,233.5C 515.418,223.671 509.085,214.004 502.5,204.5 Z"/></g>
<g><path style="opacity:0.199" fill="#09090b" d="M 521.5,233.5 C 523.104,234.287 523.771,235.62 523.5,237.5C 522.326,236.486 521.66,235.153 521.5,233.5 Z"/></g>
<g><path style="opacity:0.297" fill="#090a0a" d="M 523.5,237.5 C 535.735,258.048 543.235,280.381 546,304.5C 546.279,310.357 546.779,316.191 547.5,322C 547.472,323.07 547.139,323.903 546.5,324.5C 544.612,293.948 536.946,264.948 523.5,237.5 Z"/></g>
<g><path style="opacity:1" fill="#686868" d="M 295.5,365.5 C 297.833,366.167 300.167,366.833 302.5,367.5C 299.482,367.665 296.482,367.498 293.5,367C 294.044,366.283 294.711,365.783 295.5,365.5 Z"/></g>
<g><path style="opacity:0.58" fill="#858685" d="M 148.5,409.5 C 150.099,410.799 150.599,412.465 150,414.5C 148.991,412.975 148.491,411.308 148.5,409.5 Z"/></g>
</svg>
